<svg width="245.000000" height="245.000061" viewBox="0 0 245 245" fill="none" xmlns="http://www.w3.org/2000/svg" xmlns:xlink="http://www.w3.org/1999/xlink">
	<desc>
			Created with Pixso.
	</desc>
	<defs>
		<filter id="filter_27_23_dd" x="0.000000" y="144.082458" width="245.000000" height="100.917603" filterUnits="userSpaceOnUse" color-interpolation-filters="sRGB">
			<feFlood flood-opacity="0" result="BackgroundImageFix"/>
			<feGaussianBlur in="BackgroundImage" stdDeviation="6"/>
			<feComposite in2="SourceAlpha" operator="in" result="effect_backgroundBlur_1"/>
			<feBlend mode="normal" in="SourceGraphic" in2="effect_backgroundBlur_1" result="shape"/>
		</filter>
		<radialGradient gradientTransform="translate(122.5 103.5) rotate(90) scale(120.5 98.4858)" cx="0.000000" cy="0.000000" r="1.000000" id="paint_radial_27_15_0" gradientUnits="userSpaceOnUse">
			<stop stop-color="#1476FF"/>
			<stop offset="1.000000" stop-color="#3470ED"/>
		</radialGradient>
		<linearGradient x1="154.000000" y1="91.000000" x2="91.000008" y2="154.000000" id="paint_linear_27_28_0" gradientUnits="userSpaceOnUse">
			<stop stop-color="#0061FF"/>
			<stop offset="1.000000" stop-color="#90CDFF"/>
		</linearGradient>
		<linearGradient x1="134.499603" y1="176.000168" x2="137.999542" y2="278.000031" id="paint_linear_27_23_0" gradientUnits="userSpaceOnUse">
			<stop stop-color="#5DA0FF"/>
			<stop offset="1.000000" stop-color="#3470ED"/>
		</linearGradient>
	</defs>
	<rect id="矩形 4" rx="53.000000" width="245.000000" height="245.000000" fill="url(#paint_radial_27_15_0)" fill-opacity="1.000000"/>
	<rect id="矩形 4" x="30.000000" y="38.000000" rx="21.000000" width="187.000000" height="117.000000" fill="#CBDCFF" fill-opacity="1.000000"/>
	<rect id="矩形 4" x="24.000000" y="44.000000" rx="21.000000" width="199.000000" height="164.000000" fill="#FFFFFF" fill-opacity="1.000000"/>
	<path id="path" d="M91 91L120.84 91L120.84 120.84L91 120.84L91 91ZM120.84 154L91 154L91 124.15L120.84 124.15L120.84 154ZM154 91L154 120.84L124.15 120.84L124.15 91L154 91ZM154 154L124.15 154L124.15 124.15L154 124.15L154 154Z" fill="url(#paint_linear_27_28_0)" fill-opacity="1.000000" fill-rule="nonzero"/>
	<g filter="url(#filter_27_23_dd)">
		<path id="矢量 10" d="M53 245L192 245C221.27 245 245 222.27 245 193L245 164L90.45 164C84.95 164 80.5 159.54 80.5 154.04C80.5 148.54 76.04 144.08 70.54 144.08L0 144.08L0 193C0 222.27 23.72 245 53 245Z" fill="url(#paint_linear_27_23_0)" fill-opacity="0.800000" fill-rule="evenodd"/>
	</g>
</svg>
